<svg xmlns="http://www.w3.org/2000/svg" viewBox="505.5 331.5 140 140"><path fill="#425719" d="M524.188 370.468C541.546 370.353 565.095 377.017 575.392 392.153C587.033 374.93 608.072 371.626 627.522 372.026C627.527 405.695 615.16 429.15 579.813 433.583C581.319 422.663 583.471 414.444 591.708 406.567L591.493 405.099C583.538 408.709 579.865 411.001 573.967 417.21C569.287 406.132 563.329 403.183 553.027 397.488L551.994 397.834C560.731 405.551 566.09 416.39 566.918 428.018C567.011 429.66 567.077 431.304 567.115 432.948C534.701 428.584 522.3 400.396 524.188 370.468Z"/></svg>
