<?xml version="1.0" encoding="utf-8" ?><svg xmlns="http://www.w3.org/2000/svg" xmlns:xlink="http://www.w3.org/1999/xlink" width="1024" height="1024" viewBox="0 0 1024 1024"><path fill="white" d="M0 0L1024 0L1024 1024L0 1024L0 0Z"/><path fill="#425719" d="M459.259 441.206C463.565 440.727 469.449 441.126 473.755 441.671C517.287 447.182 545.748 490.11 539.836 532.272C537.029 553.041 526.132 571.86 509.517 584.634C492.577 597.394 472.99 602.353 451.994 599.351C435.057 597.002 419.784 587.919 409.634 574.158C409.402 582.932 409.56 592.307 409.556 601.125L409.572 652.417C399.905 652.273 389.869 652.458 380.175 652.506C379.952 627.45 379.876 602.393 379.947 577.337L379.964 442.048C389.756 441.893 399.772 441.982 409.582 441.963C409.466 450.613 409.45 459.264 409.536 467.914L411.37 465.756C425.153 449.687 437.633 442.887 459.259 441.206Z"/><path fill="white" d="M456.483 469.061C485.073 467.235 509.736 488.918 511.587 517.506C513.438 546.094 491.778 570.776 463.191 572.653C434.568 574.533 409.847 552.839 407.994 524.214C406.14 495.589 427.857 470.888 456.483 469.061Z"/><path fill="#425719" d="M286.578 385.219C316.363 385.542 344.78 397.846 360.788 423.844C352.933 428.318 341.734 435.261 333.888 438.989C332.456 436.741 330.9 434.575 329.228 432.5C319.719 420.819 307.353 415.178 292.493 413.788C280.033 412.623 266.896 414.442 257.054 422.776C250.978 427.819 247.24 435.135 246.713 443.013C244.831 470.488 286.986 473.671 305.505 480.427C322.292 486.256 337.552 492.581 349.482 506.251C369.286 528.946 366.964 564.258 343.236 583.352C325.874 597.323 300.895 601.57 279.098 599.646C267.763 598.89 256.632 596.258 246.159 591.86C226.08 583.194 215.545 570.516 207.629 550.783C217.082 547.828 226.594 545.068 236.16 542.506C246.567 565.482 269.132 572.648 292.929 572.783C311.857 572.89 332.665 563.6 331.669 541.422C330.698 521.027 311.054 514.632 294.865 509.421C269.738 501.334 241.39 497.798 224.816 474.822C210.051 454.807 213.721 424.786 230.498 407.036C245.395 391.273 265.608 385.942 286.578 385.219Z"/><path fill="#425719" d="M691.444 441.201C695.83 440.542 703.853 440.904 708.473 441.048C707.439 451 707.591 461.463 706.486 471.542C675.498 466.713 652.816 478.474 647.586 510.893C645.614 523.111 646.532 536.004 646.707 548.391L647.446 600.08L616.5 599.917L616.483 592.421L615.82 442.033C626.145 441.969 636.47 441.975 646.794 442.052C646.574 450.432 645.491 460.137 644.775 468.604C656.562 449.941 669.676 443.523 691.444 441.201Z"/><path fill="#425719" d="M799.858 441.21C803.875 440.865 809.055 440.998 813.173 440.992C813.456 450.748 813.353 461.308 813.465 471.143C796.626 469.914 780.535 469.705 767.842 482.522C761.001 489.431 756.638 498.579 754.717 508.055C752.026 521.328 752.839 535.844 752.982 549.381C753.318 566.164 753.489 582.951 753.496 599.738C743.956 600.23 732.564 599.914 722.903 599.871L722.856 586.099L722.071 442.041C729.791 441.377 745.727 441.655 753.702 441.869C752.413 451.076 752.054 459.747 751.556 468.997C761.596 450.087 779.445 442.798 799.858 441.21Z"/><path fill="#425719" d="M580.225 447.723L589.492 447.504L589.99 599.974L568.921 600.002L559.241 599.97C559.305 580.647 559.235 561.323 559.03 542L558.887 448.449L580.225 447.723Z"/><path fill="#425719" d="M524.188 370.468C541.546 370.353 565.095 377.017 575.392 392.153C587.033 374.93 608.072 371.626 627.522 372.026C627.527 405.695 615.16 429.15 579.813 433.583C581.319 422.663 583.471 414.444 591.708 406.567L591.493 405.099C583.538 408.709 579.865 411.001 573.967 417.21C569.287 406.132 563.329 403.183 553.027 397.488L551.994 397.834C560.731 405.551 566.09 416.39 566.918 428.018C567.011 429.66 567.077 431.304 567.115 432.948C534.701 428.584 522.3 400.396 524.188 370.468Z"/><path fill="#D7E1CC" d="M591.493 405.099C593.552 404.194 595.413 403.476 597.475 402.527C595.352 404.135 593.933 405.081 591.708 406.567L591.493 405.099Z"/><path fill="#93A278" d="M551.994 397.834C551.359 397.445 549.713 396.592 549.42 395.9L549.43 395.809C550.126 395.37 552.479 397.08 553.027 397.488L551.994 397.834Z"/></svg>